<svg width="24" height="12" viewBox="0 0 24 12" fill="none" xmlns="http://www.w3.org/2000/svg">
<path fill-rule="evenodd" clip-rule="evenodd" d="M21.2759 5.25022L17.0419 1.28022C16.9681 1.21293 16.9092 1.131 16.8689 1.03966C16.8286 0.948314 16.8077 0.849564 16.8077 0.749717C16.8077 0.64987 16.8286 0.55112 16.8689 0.459776C16.9092 0.368431 16.9681 0.2865 17.0419 0.219217C17.1965 0.0781853 17.3982 0 17.6074 0C17.8167 0 18.0183 0.0781853 18.1729 0.219217L23.7729 5.46922C23.8468 5.53642 23.9059 5.61832 23.9463 5.70968C23.9867 5.80103 24.0076 5.89982 24.0076 5.99972C24.0076 6.09961 23.9867 6.1984 23.9463 6.28976C23.9059 6.38111 23.8468 6.46302 23.7729 6.53022L18.1729 11.7802C18.0183 11.9212 17.8167 11.9994 17.6074 11.9994C17.3982 11.9994 17.1965 11.9212 17.0419 11.7802C16.9681 11.7129 16.9092 11.631 16.8689 11.5397C16.8286 11.4483 16.8077 11.3496 16.8077 11.2497C16.8077 11.1499 16.8286 11.0511 16.8689 10.9598C16.9092 10.8684 16.9681 10.7865 17.0419 10.7192L21.2759 6.74922L0.806915 6.74922C0.703818 6.75675 0.600276 6.74295 0.502752 6.70867C0.405229 6.6744 0.315818 6.62038 0.240107 6.55C0.164395 6.47962 0.104007 6.39438 0.0627136 6.29962C0.0214199 6.20485 0.000106812 6.10259 0.000106812 5.99922C0.000106812 5.89585 0.0214199 5.79358 0.0627136 5.69882C0.104007 5.60405 0.164395 5.51882 0.240107 5.44844C0.315818 5.37805 0.405229 5.32404 0.502752 5.28976C0.600276 5.25549 0.703818 5.24168 0.806915 5.24922L21.2759 5.25022Z" fill="#009ADC"/>
</svg>
