<svg width="1920" height="1266" viewBox="0 0 1920 1266" fill="none" xmlns="http://www.w3.org/2000/svg">
<g clip-path="url(#clip0_190_38)">
<path d="M2217.16 -279.862C2275.2 -228.202 2313.53 -158.018 2325.62 -81.2662C2337.71 -4.51488 2322.81 74.0542 2283.47 141.054C2244.12 208.053 2182.77 259.338 2109.85 286.169C2036.93 313.001 1956.96 313.719 1883.58 288.202C1810.19 262.685 1747.92 212.51 1707.38 146.228C1666.84 79.9463 1650.53 1.6576 1661.24 -75.2985C1671.95 -152.255 1709.01 -223.117 1766.11 -275.811C1823.21 -328.504 1896.81 -359.77 1974.38 -364.28C2018.42 -366.961 2062.55 -360.88 2104.23 -346.39C2145.9 -331.899 2184.29 -309.287 2217.16 -279.862ZM2465.27 -558.595C2172.78 -818.938 1724.62 -792.882 1464.28 -500.394C1203.93 -207.906 1229.99 240.249 1522.48 500.592C1814.97 760.935 2263.13 734.872 2523.47 442.392C2783.8 149.911 2757.75 -298.252 2465.27 -558.595Z" fill="url(#paint0_linear_190_38)"/>
</g>
<defs>
<linearGradient id="paint0_linear_190_38" x1="2465.27" y1="-558.595" x2="1522.48" y2="500.592" gradientUnits="userSpaceOnUse">
<stop stop-color="#FDDC03"/>
<stop offset="1" stop-color="#FDDC03" stop-opacity="0.078"/>
</linearGradient>
<clipPath id="clip0_190_38">
<rect width="1920" height="1266" fill="white"/>
</clipPath>
</defs>
</svg>
