<svg width="24" height="24" viewBox="0 0 24 24" fill="none" xmlns="http://www.w3.org/2000/svg">
<path d="M7.37622 6.38623H8.07981V7.08982H7.37622V6.38623Z" fill="black"/>
<path d="M8.78339 6.38623H9.48698V7.08982H8.78339V6.38623Z" fill="black"/>
<path d="M19.8151 5.752L20.4936 5.56586C20.4285 5.32863 20.3508 5.092 20.2627 4.86255L19.6059 5.11488C19.6857 5.32272 19.7561 5.53703 19.8151 5.752Z" fill="black"/>
<path d="M11.5509 1.46558H12.2545V2.16917H11.5509V1.46558Z" fill="black"/>
<path d="M10.7602 12.7731L10.1054 12.5156C9.66225 13.6787 7.98272 13.7012 7.50183 12.5565L6.85547 12.8346C7.5772 14.5521 10.096 14.5168 10.7602 12.7731Z" fill="black"/>
<path d="M15.0889 13.408C14.5258 13.408 14.0181 13.0738 13.7955 12.5564L13.1492 12.8345C13.8582 14.5244 16.3198 14.5238 17.0285 12.8346L16.3823 12.5565C16.1597 13.0738 15.652 13.408 15.0889 13.408Z" fill="black"/>
<path d="M17.348 11.2554L17.8301 10.743C17.2514 10.1984 16.4949 9.89844 15.7002 9.89844H13.0422V10.602H15.7002C16.315 10.602 16.9002 10.8341 17.348 11.2554Z" fill="black"/>
<path d="M10.9105 10.602V9.89844H8.22138C7.42666 9.89844 6.67024 10.1984 6.09143 10.743L6.57359 11.2554C7.02138 10.8341 7.60657 10.602 8.22134 10.602H10.9105Z" fill="black"/>
<path d="M10.0526 17.3325L9.64856 17.9086C10.9053 18.9314 13.0175 18.9314 14.2743 17.9086L13.8703 17.3325C12.8746 18.1076 10.9735 18.1103 10.0526 17.3325Z" fill="black"/>
<path d="M18.5087 17.5825C18.8554 16.7496 19.0904 15.8564 19.2207 14.8556C20.172 14.2648 20.7577 13.2107 20.7577 12.0884V7.59253C20.7448 7.059 20.7159 6.58936 20.6562 6.30436L19.9623 6.42094C20.1161 7.08272 20.0352 9.8362 20.0542 10.6079H19.3208C19.3104 5.83772 16.1667 2.46952 11.2104 2.89781C10.3667 2.42362 10.3579 1.2218 11.1974 0.741609H13.2396C15.8315 0.741609 18.1662 2.18081 19.3326 4.49761L19.9611 4.1812C18.7256 1.67766 16.0379 0.0122344 13.2396 0.0381094C10.5086 -0.001875 8.11613 -0.129047 5.89041 1.76325L4.92605 0L3.83761 1.99013L1.84753 3.07856L3.9068 4.24659C3.43505 5.03466 3.2303 6.21647 3.16228 7.47291V12.0885C3.16233 13.2108 3.7508 14.2649 4.70213 14.8557C4.94785 17.3733 6.37721 19.9871 8.43685 21.5479V24H9.14044V22.0472C10.012 22.6098 10.9566 23.0145 11.9574 23.2557C12.9533 23.016 13.9089 22.6021 14.7842 22.0376V24H15.4878V21.5378C15.9179 21.2026 16.3222 20.8294 16.6943 20.4222L17.5898 22.0594L18.6782 20.0693L20.6683 18.9809L18.6782 17.8924L18.5087 17.5825ZM20.0568 11.3115C20.0855 12.321 20.0923 13.1288 19.3407 13.8894V11.3115H20.0568ZM3.31383 3.07852L4.35605 2.50852L4.92605 1.4663L5.49605 2.50852L6.53827 3.07852L5.49605 3.64852L4.92605 4.69073L4.35605 3.64852L3.31383 3.07852ZM3.86592 7.55892C3.86592 6.69469 4.02333 5.86153 4.33332 5.07328L4.9261 6.15713L6.01453 4.167L8.00461 3.07856L6.44044 2.22309C7.51261 1.36964 8.81358 0.861141 10.1797 0.7605C9.71428 1.42439 9.76603 2.40788 10.3009 3.01734C6.55013 3.63623 4.58794 6.96689 4.56544 10.6079H3.86592V7.55892ZM3.86592 12.0884V11.3115H4.56282V13.892C4.09205 13.4185 3.86592 12.7695 3.86592 12.0884ZM11.9574 22.53C6.21717 20.9756 4.9396 15.9175 5.26735 10.736L6.26377 9.73955C7.86403 8.16356 9.19003 9.47119 10.998 7.87613L10.5345 7.34672C8.65617 8.91066 7.60585 7.17197 5.32664 9.68156C5.49352 8.20064 5.98819 6.87277 6.74532 5.87288C9.00497 2.64919 15.5751 2.84494 17.4914 6.34317C17.9188 7.03397 18.1875 7.74998 18.3568 8.48784C16.9455 6.52336 14.7561 5.21981 12.3092 4.94447V4.25194H11.6056C11.6357 5.22417 11.5957 6.07439 10.9733 6.8752L11.5346 7.29947C11.9071 6.80672 12.1499 6.24408 12.2528 5.64605C15.0419 5.96667 17.4663 7.74778 18.6031 10.3292C18.5841 12.2928 18.7763 14.9342 18.0644 16.7701L17.5898 15.9023L16.5014 17.8924L14.5113 18.9809L16.2095 19.9096C15.0547 21.1878 13.5618 22.11 11.9574 22.53ZM18.1598 19.5509L17.5898 20.5931L17.0198 19.5509L15.9776 18.9809L17.0198 18.4109L17.5898 17.3687L18.1598 18.4109L19.202 18.9809L18.1598 19.5509Z" fill="black"/>
<path d="M21.812 15.5098H21.1084V16.2134H20.4048V16.917H21.1084V17.6206H21.812V16.917H22.5157V16.2134H21.812V15.5098Z" fill="black"/>
<path d="M1.40719 4.98877H0.703594V5.69236H0V6.396H0.703594V7.0996H1.40719V6.396H2.11083V5.69236H1.40719V4.98877Z" fill="black"/>
<path d="M23.2537 14.1025H23.9573V14.8061H23.2537V14.1025Z" fill="black"/>
<path d="M23.2537 18.3228H23.9573V19.0263H23.2537V18.3228Z" fill="black"/>
</svg>
