<svg width="77" height="77" viewBox="0 0 77 77" fill="none" xmlns="http://www.w3.org/2000/svg">
<path d="M38.999 22.1553C38.2871 22.1553 37.71 22.7324 37.71 23.4443C37.71 24.1562 38.2871 24.7334 38.999 24.7334C43.2644 24.7334 46.7347 28.203 46.7347 32.4678C46.7347 33.1797 47.3118 33.7568 48.0238 33.7568C48.7357 33.7568 49.3128 33.1797 49.3128 32.4678C49.3128 26.7815 44.6861 22.1553 38.999 22.1553Z" fill="white"/>
<path d="M35.6773 17.3463C29.8533 18.5632 25.131 23.2403 23.8884 29.1005C22.8392 34.0489 24.1322 39.017 27.4357 42.7308C29.0505 44.546 29.9766 46.9422 29.9766 49.3116V51.8897C29.9766 53.605 31.0995 55.0623 32.6486 55.567C33.1581 58.577 35.7706 60.999 39 60.999C42.2286 60.999 44.8418 58.5777 45.3514 55.567C46.9005 55.0623 48.0235 53.605 48.0235 51.8896V49.3115C48.0235 46.9375 48.9526 44.5701 50.6396 42.6454C53.1089 39.8284 54.4688 36.2139 54.4688 32.4679C54.4688 22.7084 45.5357 15.2867 35.6773 17.3463ZM39 58.421C37.343 58.421 35.8901 57.2808 35.3536 55.7483H42.6464C42.1099 57.2808 40.6571 58.421 39 58.421ZM45.4453 51.8897C45.4453 52.6005 44.8671 53.1788 44.1563 53.1788H33.8438C33.133 53.1788 32.5547 52.6005 32.5547 51.8897V50.6007H45.4453V51.8897ZM48.7008 40.9462C46.903 42.9973 45.7969 45.4705 45.5162 48.0225H32.4841C32.2037 45.4692 31.1005 42.9716 29.3621 41.0173C26.6089 37.9221 25.533 33.7735 26.4105 29.6353C27.4348 24.8044 31.3708 20.88 36.2047 19.87C44.4567 18.1455 51.8907 24.3426 51.8907 32.4679C51.8907 35.5884 50.7578 38.5994 48.7008 40.9462Z" fill="white"/>
<path d="M20.8672 32.4678H18.2891C17.5772 32.4678 17 33.0449 17 33.7568C17 34.4687 17.5772 35.0459 18.2891 35.0459H20.8672C21.5791 35.0459 22.1562 34.4687 22.1562 33.7568C22.1562 33.0449 21.5791 32.4678 20.8672 32.4678Z" fill="white"/>
<path d="M21.4015 26.0226L19.5785 24.1996C19.0752 23.6962 18.2589 23.6962 17.7555 24.1996C17.2521 24.703 17.2521 25.5192 17.7555 26.0226L19.5785 27.8456C20.0818 28.349 20.8981 28.3491 21.4015 27.8456C21.9049 27.3422 21.9049 26.526 21.4015 26.0226Z" fill="white"/>
<path d="M21.4005 39.6686C20.8971 39.1652 20.0808 39.1652 19.5775 39.6686L17.7545 41.4916C17.2511 41.995 17.2511 42.8111 17.7545 43.3146C18.2579 43.818 19.0741 43.8181 19.5775 43.3146L21.4005 41.4916C21.9039 40.9882 21.9039 40.172 21.4005 39.6686Z" fill="white"/>
<path d="M59.7109 32.4678H57.1328C56.4209 32.4678 55.8438 33.0449 55.8438 33.7568C55.8438 34.4687 56.4209 35.0459 57.1328 35.0459H59.7109C60.4228 35.0459 61 34.4687 61 33.7568C61 33.0449 60.4228 32.4678 59.7109 32.4678Z" fill="white"/>
<path d="M60.2452 24.1996C59.7419 23.6962 58.9257 23.6962 58.4222 24.1996L56.5992 26.0226C56.0958 26.526 56.0958 27.3422 56.5992 27.8456C57.1026 28.3489 57.9188 28.349 58.4222 27.8456L60.2452 26.0226C60.7487 25.5192 60.7487 24.703 60.2452 24.1996Z" fill="white"/>
<path d="M60.2443 41.4916L58.4213 39.6686C57.9179 39.1652 57.1017 39.1652 56.5983 39.6686C56.0948 40.172 56.0948 40.9882 56.5983 41.4916L58.4213 43.3146C58.9246 43.8179 59.7408 43.818 60.2443 43.3146C60.7477 42.8111 60.7477 41.995 60.2443 41.4916Z" fill="white"/>
<circle cx="38.5" cy="38.5" r="37.5" stroke="white" stroke-width="2"/>
</svg>
