<svg width="23" height="16" viewBox="0 0 23 16" fill="none" xmlns="http://www.w3.org/2000/svg">
<path d="M23 0H0V15.333H23V0Z" fill="#F0F0F0"/>
<path d="M23 0H0V7.6665H23V0Z" fill="#D80027"/>
<path d="M3.75002 3.83309C3.75002 2.71611 4.53508 1.78299 5.58337 1.55402C5.42224 1.5188 5.25508 1.49976 5.08339 1.49976C3.79467 1.49976 2.75006 2.54437 2.75006 3.83304C2.75006 5.12172 3.79472 6.16637 5.08339 6.16637C5.25508 6.16637 5.42224 6.14728 5.58337 6.11211C4.53508 5.88323 3.75002 4.95012 3.75002 3.83309Z" fill="#F0F0F0"/>
<path d="M6.74996 1.6665L6.91545 2.17578H7.45096L7.01769 2.49055L7.18318 2.99983L6.74996 2.68511L6.31668 2.99983L6.48222 2.49055L6.04895 2.17578H6.58446L6.74996 1.6665Z" fill="#F0F0F0"/>
<path d="M5.45101 2.6665L5.61645 3.17578H6.15197L5.7187 3.49055L5.88419 3.99983L5.45101 3.68511L5.01773 3.99983L5.18327 3.49055L4.75 3.17578H5.28551L5.45101 2.6665Z" fill="#F0F0F0"/>
<path d="M8.04935 2.6665L8.21484 3.17578H8.75036L8.31708 3.49055L8.48258 3.99983L8.04935 3.68511L7.61612 3.99983L7.78166 3.49055L7.34839 3.17578H7.8839L8.04935 2.6665Z" fill="#F0F0F0"/>
<path d="M7.549 4.1665L7.71449 4.67578H8.25001L7.81678 4.99055L7.98227 5.49983L7.549 5.18511L7.11582 5.49983L7.28131 4.99055L6.84808 4.67578H7.38355L7.549 4.1665Z" fill="#F0F0F0"/>
<path d="M5.95102 4.1665L6.11647 4.67578H6.65198L6.21876 4.99055L6.38425 5.49983L5.95102 5.18511L5.5178 5.49983L5.68329 4.99055L5.25006 4.67578H5.78553L5.95102 4.1665Z" fill="#F0F0F0"/>
</svg>
